# xmcd CD database file
#
# Track frame offsets:
#	150
#	18772
#	41873
#	76258
#	98784
#	124036
#	169266
#	205928
#	241449
#	276786
#
# Disc length: 4225 seconds
#
# Revision: 0
# Processed by: cddbd v1.5.2PL0 Copyright (c) Steve Scherf et al.
# Submitted via: CDex 1.51
#
DISCID=80107f0a
DTITLE=Alan Broadbent - Alex Cline - Nels Cline - Peter Erskine - Alan Pasqua - etc. - The Music of Eric von Essen volume 2
DYEAR=2001
DGENRE=Jazz
TTITLE0=Bud For John
TTITLE1=K.
TTITLE2=Show Tune
TTITLE3=I Just Wanted to Talk to You
TTITLE4=Petit Rayon
TTITLE5=9/8/29
TTITLE6=Seule
TTITLE7=Paulo's Song
TTITLE8=BC/Jezebel
TTITLE9=Marry Me
EXTD=YEAR: 2001
EXTT0=
EXTT1=
EXTT2=
EXTT3=
EXTT4=
EXTT5=
EXTT6=
EXTT7=
EXTT8=
EXTT9=
PLAYORDER=
